<svg width="278" height="42" viewBox="0 0 278 42" fill="none" xmlns="http://www.w3.org/2000/svg">
<path d="M258.616 25.9752V0.404144H262.013L269.803 12.7488C272.609 17.0106 274.382 20.0601 275.342 21.9705H275.785C275.637 18.4435 275.489 11.867 275.489 6.76017V0.404144H278V25.9752H275.268L266.739 12.5284C263.97 8.19303 262.198 5.21709 261.201 3.30661H260.758C260.905 6.24581 261.09 13.9245 261.09 18.7742V25.9752H258.616Z" fill="black"/>
<path d="M241.319 26.4161C233.972 26.4161 229.246 21.1623 229.246 13.1897C229.246 5.25382 233.972 0 241.319 0C248.629 0 253.355 5.25382 253.355 13.1897C253.355 21.1623 248.629 26.4161 241.319 26.4161ZM241.319 24.3219C246.968 24.3219 250.697 19.8029 250.697 13.1897C250.697 6.53972 246.968 2.09418 241.319 2.09418C235.633 2.09418 231.904 6.53972 231.904 13.1897C231.904 19.8029 235.633 24.3219 241.319 24.3219Z" fill="black"/>
<path d="M211.597 25.9752V0.404144H224.704V2.35137H214.145V23.9545H224.704V25.9752H211.597ZM216.139 13.7775V11.7568H223.855V13.7775H216.139Z" fill="black"/>
<path d="M197.278 26.0119V15.9084L188.897 0.404144H191.74L196.318 9.18501C197.13 10.7648 197.758 12.014 198.423 13.5571H198.829C199.493 12.014 200.269 10.4342 201.007 9.11153L205.549 0.404144H208.207L199.789 15.9084V26.0119H197.278Z" fill="black"/>
<path d="M178.033 26.4161C170.132 26.4161 165.406 21.5664 165.406 13.6673C165.406 5.84167 169.947 0.0367432 178.993 0.0367432C181.393 0.0367432 183.867 0.514364 186.082 1.54308L185.306 3.63727C183.165 2.53506 180.913 2.13092 178.661 2.13092C171.978 2.13092 168.064 7.45823 168.064 13.2264C168.064 20.1703 172.089 24.3219 178.476 24.3219C180.47 24.3219 182.316 24.028 183.977 23.4769V14.9532H177.996V12.9325H186.488V24.9832C183.903 25.9385 180.728 26.4161 178.033 26.4161Z" fill="black"/>
<path d="M140.871 25.9752V0.404144H144.268L152.058 12.7488C154.864 17.0106 156.637 20.0601 157.597 21.9705H158.04C157.892 18.4435 157.744 11.867 157.744 6.76017V0.404144H160.255V25.9752H157.523L148.994 12.5284C146.225 8.19303 144.452 5.21709 143.456 3.30661H143.013C143.16 6.24581 143.345 13.9245 143.345 18.7742V25.9752H140.871Z" fill="black"/>
<path d="M123.628 26.4161C116.982 26.4161 113.918 23.0727 113.918 16.7167V0.404144H116.466V16.7167C116.466 21.7134 118.755 24.3219 123.628 24.3219C128.539 24.3219 130.828 21.7134 130.828 16.7167V0.404144H133.376V16.7167C133.376 23.0727 130.311 26.4161 123.628 26.4161Z" fill="black"/>
<path d="M94.6455 25.9752V0.404144H107.753V2.35137H97.1931V23.9545H107.753V25.9752H94.6455ZM99.1869 13.7775V11.7568H106.903V13.7775H99.1869Z" fill="black"/>
<path d="M80.589 26.2324C78.3737 26.2324 75.6784 25.6078 73.6108 24.6158L74.3493 22.6319C76.343 23.3667 78.8906 24.1382 80.8844 24.1382C84.355 24.1382 86.4965 22.4849 86.4965 19.362C86.4965 16.4595 83.5427 14.9532 80.9213 13.8143C77.783 12.4181 74.3493 10.8383 74.3493 6.64995C74.3493 2.97595 77.303 0.0367432 82.5459 0.0367432C84.0966 0.0367432 86.4595 0.440883 88.2318 1.2859L87.4195 3.15965C85.795 2.46158 83.875 2.05745 82.2874 2.05745C78.8537 2.05745 77.0076 3.74749 77.0076 6.42951C77.0076 9.36871 79.7029 10.5811 82.3982 11.7568C85.6842 13.1897 89.1548 14.9532 89.1548 19.1416C89.1548 22.9625 86.3488 26.2324 80.589 26.2324Z" fill="black"/>
<path d="M48.7803 25.9752V0.404144H52.1771L59.9675 12.7488C62.7735 17.0106 64.5458 20.0601 65.5057 21.9705H65.9488C65.8011 18.4435 65.6534 11.867 65.6534 6.76017V0.404144H68.1641V25.9752H65.4319L56.903 12.5284C54.1339 8.19303 52.3617 5.21709 51.3648 3.30661H50.9217C51.0694 6.24581 51.254 13.9245 51.254 18.7742V25.9752H48.7803Z" fill="black"/>
<path d="M31.4835 26.4161C24.1361 26.4161 19.4102 21.1623 19.4102 13.1897C19.4102 5.25382 24.1361 0 31.4835 0C38.794 0 43.5199 5.25382 43.5199 13.1897C43.5199 21.1623 38.794 26.4161 31.4835 26.4161ZM31.4835 24.3219C37.1325 24.3219 40.8616 19.8029 40.8616 13.1897C40.8616 6.53972 37.1325 2.09418 31.4835 2.09418C25.7976 2.09418 22.0685 6.53972 22.0685 13.1897C22.0685 19.8029 25.7976 24.3219 31.4835 24.3219Z" fill="black"/>
<path d="M6.97818 26.2324C4.76288 26.2324 2.06761 25.6078 0 24.6158L0.738431 22.6319C2.7322 23.3667 5.27978 24.1382 7.27355 24.1382C10.7442 24.1382 12.8856 22.4849 12.8856 19.362C12.8856 16.4595 9.9319 14.9532 7.31047 13.8143C4.17214 12.4181 0.738431 10.8383 0.738431 6.64995C0.738431 2.97595 3.69216 0.0367432 8.93502 0.0367432C10.4857 0.0367432 12.8487 0.440883 14.6209 1.2859L13.8087 3.15965C12.1841 2.46158 10.2642 2.05745 8.67657 2.05745C5.24286 2.05745 3.39678 3.74749 3.39678 6.42951C3.39678 9.36871 6.09206 10.5811 8.78733 11.7568C12.0734 13.1897 15.544 14.9532 15.544 19.1416C15.544 22.9625 12.7379 26.2324 6.97818 26.2324Z" fill="black"/>
<path d="M275.766 39.7221C274.4 39.7221 273.514 38.721 273.514 37.1687C273.514 35.6348 274.4 34.6428 275.766 34.6428C277.123 34.6428 278 35.6348 278 37.1687C278 38.721 277.123 39.7221 275.766 39.7221ZM275.766 39.2353C276.726 39.2353 277.354 38.4178 277.354 37.1687C277.354 35.9379 276.726 35.1296 275.766 35.1296C274.797 35.1296 274.16 35.9379 274.16 37.1687C274.16 38.4178 274.797 39.2353 275.766 39.2353Z" fill="black"/>
<path d="M269.753 39.6211V34.7438H270.372V39.6211H269.753ZM270.058 33.7794C269.79 33.7794 269.605 33.5865 269.605 33.3385C269.605 33.0814 269.79 32.8793 270.058 32.8793C270.316 32.8793 270.519 33.0722 270.519 33.3385C270.519 33.5773 270.316 33.7794 270.058 33.7794Z" fill="black"/>
<path d="M265.7 39.6211V32.5946H266.319V39.6211H265.7Z" fill="black"/>
<path d="M260.461 39.7221C259.095 39.7221 258.208 38.721 258.208 37.1687C258.208 35.6348 259.095 34.6428 260.461 34.6428C261.818 34.6428 262.694 35.6348 262.694 37.1687C262.694 38.721 261.818 39.7221 260.461 39.7221ZM260.461 39.2353C261.421 39.2353 262.048 38.4178 262.048 37.1687C262.048 35.9379 261.421 35.1296 260.461 35.1296C259.492 35.1296 258.855 35.9379 258.855 37.1687C258.855 38.4178 259.492 39.2353 260.461 39.2353Z" fill="black"/>
<path d="M253.949 39.6211V35.3776H252.915V34.9275H253.949V34.505C253.949 33.1181 254.383 32.5394 255.426 32.5394C255.666 32.5394 256.053 32.5854 256.321 32.6405L256.229 33.1089C256.016 33.063 255.675 33.0171 255.444 33.0171C254.752 33.0171 254.567 33.513 254.567 34.4683V34.9275H255.98V35.3776H254.567V39.6211H253.949Z" fill="black"/>
<path d="M249.791 39.7221C248.877 39.7221 248.6 39.3272 248.6 38.3535V35.2031H247.585V34.7438H248.6V33.2651H249.219V34.7438H250.613V35.2031H249.219V38.2893C249.219 38.9506 249.376 39.2078 249.976 39.2078C250.188 39.2078 250.419 39.171 250.585 39.1343L250.64 39.6211C250.373 39.6762 250.049 39.7221 249.791 39.7221Z" fill="black"/>
<path d="M242.856 39.6211V34.7438H243.465C243.465 35.0378 243.428 35.4603 243.345 35.8552H243.474C243.65 35.1847 244.213 34.5693 245.265 34.652L245.237 35.249C244.074 35.0929 243.474 35.892 243.474 37.5453V39.6211H242.856Z" fill="black"/>
<path d="M237.608 39.7221C236.242 39.7221 235.355 38.721 235.355 37.1687C235.355 35.6348 236.242 34.6428 237.608 34.6428C238.965 34.6428 239.841 35.6348 239.841 37.1687C239.841 38.721 238.965 39.7221 237.608 39.7221ZM237.608 39.2353C238.568 39.2353 239.195 38.4178 239.195 37.1687C239.195 35.9379 238.568 35.1296 237.608 35.1296C236.638 35.1296 236.002 35.9379 236.002 37.1687C236.002 38.4178 236.638 39.2353 237.608 39.2353Z" fill="black"/>
<path d="M228.68 41.9816V34.7438H229.289C229.289 35.0194 229.262 35.5429 229.206 35.7909H229.326C229.576 35.1112 230.185 34.6428 230.932 34.6428C232.031 34.6428 232.64 35.497 232.64 36.8472C232.64 38.5281 231.735 39.7221 230.249 39.7221C230.092 39.7221 229.852 39.6854 229.686 39.6211L229.816 39.1526C229.972 39.2078 230.111 39.2353 230.286 39.2353C231.311 39.2353 231.994 38.3811 231.994 36.9023C231.994 35.9012 231.615 35.1296 230.785 35.1296C229.779 35.1296 229.299 36.2777 229.299 37.1411V41.9816H228.68Z" fill="black"/>
<path d="M216.902 39.6211V34.7438H217.511C217.511 35.0745 217.493 35.4603 217.419 35.7909H217.539C217.788 35.1112 218.397 34.6428 219.209 34.6428C220.317 34.6428 220.649 35.2766 220.649 36.1308V39.6211H220.031V36.3696C220.031 35.598 219.819 35.1296 219.043 35.1296C218.148 35.1296 217.52 35.993 217.52 37.1595V39.6211H216.902Z" fill="black"/>
<path d="M211.671 42C210.757 42 210.009 41.6877 209.594 41.403L209.843 40.9254C210.296 41.1917 210.988 41.4765 211.717 41.4765C212.391 41.4765 213.009 41.0723 213.009 40.0711V36.3788C212.76 35.6164 212.299 35.1296 211.772 35.1296C210.794 35.1296 210.102 36.0757 210.102 37.233C210.102 38.3903 210.656 39.2353 211.579 39.2353C211.819 39.2353 212.142 39.0884 212.4 38.7944L212.705 39.0516C212.4 39.4833 211.966 39.7221 211.468 39.7221C210.176 39.7221 209.456 38.7026 209.456 37.2881C209.456 35.8093 210.369 34.6428 211.699 34.6428C212.308 34.6428 212.769 34.9367 213.009 35.4603V34.7438H213.609V40.016C213.609 41.2928 212.742 42 211.671 42Z" fill="black"/>
<path d="M205.695 39.6211V34.7438H206.313V39.6211H205.695ZM205.999 33.7794C205.731 33.7794 205.547 33.5865 205.547 33.3385C205.547 33.0814 205.731 32.8793 205.999 32.8793C206.258 32.8793 206.461 33.0722 206.461 33.3385C206.461 33.5773 206.258 33.7794 205.999 33.7794Z" fill="black"/>
<path d="M200.757 39.7221C200.332 39.7221 199.843 39.6486 199.437 39.5292L199.575 39.0149C199.963 39.1343 200.462 39.2261 200.831 39.2261C201.523 39.2261 201.855 38.8955 201.855 38.3903C201.855 37.7933 201.311 37.5453 200.766 37.3065C200.037 36.985 199.483 36.6911 199.483 35.892C199.483 35.2215 200.019 34.6428 201.154 34.6428C201.468 34.6428 201.846 34.6979 202.197 34.7806L202.095 35.3041C201.782 35.2123 201.394 35.1388 201.089 35.1388C200.379 35.1388 200.102 35.4143 200.102 35.8369C200.102 36.3696 200.6 36.6176 201.126 36.838C201.763 37.1044 202.492 37.4259 202.492 38.3444C202.492 39.0792 201.929 39.7221 200.757 39.7221Z" fill="black"/>
<path d="M194.816 39.7221C193.432 39.7221 192.545 38.822 192.545 37.2054C192.545 35.7266 193.422 34.6428 194.715 34.6428C195.998 34.6428 196.607 35.5338 196.607 36.7462C196.607 36.9758 196.598 37.1228 196.588 37.2513H193.699V36.7829H195.979C196.025 35.6532 195.435 35.1296 194.668 35.1296C193.69 35.1296 193.192 36.1308 193.192 37.2238C193.192 38.5281 193.875 39.2353 194.918 39.2353C195.37 39.2353 195.831 39.1435 196.293 38.9873L196.413 39.4466C195.905 39.6119 195.351 39.7221 194.816 39.7221Z" fill="black"/>
<path d="M187.249 39.7221C186.086 39.7221 185.431 38.7485 185.431 37.3799C185.431 35.6256 186.446 34.6428 187.627 34.6428C188.311 34.6428 188.689 35.0194 188.809 35.2215H188.874V32.5946H189.492V38.7118C189.492 39.0057 189.52 39.1986 189.732 39.2261C189.861 39.2445 190.009 39.1986 190.101 39.1343L190.249 39.5752C190.083 39.6854 189.824 39.7313 189.594 39.7221C189.058 39.6946 188.874 39.3547 188.874 38.7118V36.0389C188.698 35.6623 188.366 35.1296 187.784 35.1296C186.926 35.1296 186.077 35.7542 186.077 37.3156C186.077 38.4178 186.557 39.2353 187.388 39.2353C187.701 39.2353 188.006 39.0516 188.264 38.7761L188.578 39.0792C188.264 39.4925 187.84 39.7221 187.249 39.7221Z" fill="black"/>
</svg>
