<svg width="76" height="42" viewBox="0 0 76 42" fill="none" xmlns="http://www.w3.org/2000/svg">
<path d="M65.1233 25.704C62.9633 25.704 60.3353 25.092 58.3193 24.12L59.0393 22.176C60.9833 22.896 63.4673 23.652 65.4113 23.652C68.7953 23.652 70.8833 22.032 70.8833 18.972C70.8833 16.128 68.0033 14.652 65.4473 13.536C62.3873 12.168 59.0393 10.62 59.0393 6.51601C59.0393 2.91601 61.9193 0.0360107 67.0313 0.0360107C68.5433 0.0360107 70.8473 0.43201 72.5753 1.26001L71.7833 3.09601C70.1993 2.41201 68.3273 2.01601 66.7793 2.01601C63.4313 2.01601 61.6313 3.67201 61.6313 6.30001C61.6313 9.18001 64.2593 10.368 66.8873 11.52C70.0913 12.924 73.4753 14.652 73.4753 18.756C73.4753 22.5 70.7393 25.704 65.1233 25.704Z" fill="black"/>
<path d="M46.0378 25.488V2.41201H38.4778V0.396011H56.1538V2.41201H48.5218V25.488H46.0378Z" fill="black"/>
<path d="M28.3736 25.884C21.3176 25.884 17.2856 21.132 17.2856 13.392C17.2856 5.004 21.6056 0 29.1296 0C31.1456 0 34.0616 0.611999 35.8256 1.8L34.7816 3.528C32.9456 2.628 30.6416 2.016 28.6256 2.016C23.1536 2.016 19.8776 6.156 19.8776 12.96C19.8776 19.62 23.2976 23.76 28.9856 23.76C30.9656 23.76 33.6296 23.328 35.3576 22.428L36.0776 24.372C33.9536 25.344 31.0376 25.884 28.3736 25.884Z" fill="black"/>
<path d="M1.6582 25.488V0.396011H14.1142V2.34001H4.1422V25.488H1.6582ZM6.0862 13.536V11.556H13.4662V13.536H6.0862Z" fill="black"/>
<path d="M72.9553 38.868C71.6233 38.868 70.7593 37.887 70.7593 36.366C70.7593 34.863 71.6233 33.891 72.9553 33.891C74.2783 33.891 75.1333 34.863 75.1333 36.366C75.1333 37.887 74.2783 38.868 72.9553 38.868ZM72.9553 38.391C73.8913 38.391 74.5033 37.59 74.5033 36.366C74.5033 35.16 73.8913 34.368 72.9553 34.368C72.0103 34.368 71.3893 35.16 71.3893 36.366C71.3893 37.59 72.0103 38.391 72.9553 38.391Z" fill="black"/>
<path d="M67.0925 38.769V33.99H67.6955V38.769H67.0925ZM67.3895 33.045C67.1285 33.045 66.9485 32.856 66.9485 32.613C66.9485 32.361 67.1285 32.163 67.3895 32.163C67.6415 32.163 67.8395 32.352 67.8395 32.613C67.8395 32.847 67.6415 33.045 67.3895 33.045Z" fill="black"/>
<path d="M61.514 38.868C60.38 38.868 59.741 37.914 59.741 36.573C59.741 34.854 60.731 33.891 61.883 33.891C62.549 33.891 62.918 34.26 63.035 34.458H63.098V31.884H63.701V37.878C63.701 38.166 63.728 38.355 63.935 38.382C64.061 38.4 64.205 38.355 64.295 38.292L64.439 38.724C64.277 38.832 64.025 38.877 63.8 38.868C63.278 38.841 63.098 38.508 63.098 37.878V35.259C62.927 34.89 62.603 34.368 62.036 34.368C61.199 34.368 60.371 34.98 60.371 36.51C60.371 37.59 60.839 38.391 61.649 38.391C61.955 38.391 62.252 38.211 62.504 37.941L62.81 38.238C62.504 38.643 62.09 38.868 61.514 38.868Z" fill="black"/>
<path d="M54.4857 38.868C53.4597 38.868 53.1357 38.229 53.1357 37.419V33.99H53.7387V37.176C53.7387 37.932 53.9367 38.391 54.6657 38.391C55.0347 38.391 55.3227 38.229 55.5747 37.959L55.8717 38.211C55.5657 38.607 55.1067 38.868 54.4857 38.868ZM56.8617 38.868C56.3397 38.841 56.1597 38.508 56.1597 37.878V33.99H56.7627V37.878C56.7627 38.166 56.7897 38.355 56.9967 38.382C57.1227 38.4 57.2667 38.355 57.3567 38.292L57.5007 38.724C57.3387 38.832 57.0867 38.877 56.8617 38.868Z" fill="black"/>
<path d="M49.4508 38.868C48.5598 38.868 48.2898 38.481 48.2898 37.527V34.44H47.2998V33.99H48.2898V32.541H48.8928V33.99H50.2518V34.44H48.8928V37.464C48.8928 38.112 49.0458 38.364 49.6308 38.364C49.8378 38.364 50.0628 38.328 50.2248 38.292L50.2788 38.769C50.0178 38.823 49.7028 38.868 49.4508 38.868Z" fill="black"/>
<path d="M43.2413 38.868C42.8273 38.868 42.3503 38.796 41.9543 38.679L42.0893 38.175C42.4673 38.292 42.9533 38.382 43.3133 38.382C43.9883 38.382 44.3123 38.058 44.3123 37.563C44.3123 36.978 43.7813 36.735 43.2503 36.501C42.5393 36.186 41.9993 35.898 41.9993 35.115C41.9993 34.458 42.5213 33.891 43.6283 33.891C43.9343 33.891 44.3033 33.945 44.6453 34.026L44.5463 34.539C44.2403 34.449 43.8623 34.377 43.5653 34.377C42.8723 34.377 42.6023 34.647 42.6023 35.061C42.6023 35.583 43.0883 35.826 43.6013 36.042C44.2223 36.303 44.9333 36.618 44.9333 37.518C44.9333 38.238 44.3843 38.868 43.2413 38.868Z" fill="black"/>
<path d="M30.686 38.769V33.99H31.28C31.28 34.314 31.262 34.692 31.19 35.016H31.307C31.55 34.35 32.144 33.891 32.936 33.891C34.016 33.891 34.34 34.512 34.34 35.349V38.769H33.737V35.583C33.737 34.827 33.53 34.368 32.774 34.368C31.901 34.368 31.289 35.214 31.289 36.357V38.769H30.686Z" fill="black"/>
<path d="M25.5853 41.1C24.6943 41.1 23.9653 40.794 23.5603 40.515L23.8033 40.047C24.2443 40.308 24.9193 40.587 25.6303 40.587C26.2873 40.587 26.8903 40.191 26.8903 39.21V35.592C26.6473 34.845 26.1973 34.368 25.6843 34.368C24.7303 34.368 24.0553 35.295 24.0553 36.429C24.0553 37.563 24.5953 38.391 25.4953 38.391C25.7293 38.391 26.0443 38.247 26.2963 37.959L26.5933 38.211C26.2963 38.634 25.8733 38.868 25.3873 38.868C24.1273 38.868 23.4253 37.869 23.4253 36.483C23.4253 35.034 24.3163 33.891 25.6123 33.891C26.2063 33.891 26.6563 34.179 26.8903 34.692V33.99H27.4753V39.156C27.4753 40.407 26.6293 41.1 25.5853 41.1Z" fill="black"/>
<path d="M19.7585 38.769V33.99H20.3615V38.769H19.7585ZM20.0555 33.045C19.7945 33.045 19.6145 32.856 19.6145 32.613C19.6145 32.361 19.7945 32.163 20.0555 32.163C20.3075 32.163 20.5055 32.352 20.5055 32.613C20.5055 32.847 20.3075 33.045 20.0555 33.045Z" fill="black"/>
<path d="M14.944 38.868C14.53 38.868 14.053 38.796 13.657 38.679L13.792 38.175C14.17 38.292 14.656 38.382 15.016 38.382C15.691 38.382 16.015 38.058 16.015 37.563C16.015 36.978 15.484 36.735 14.953 36.501C14.242 36.186 13.702 35.898 13.702 35.115C13.702 34.458 14.224 33.891 15.331 33.891C15.637 33.891 16.006 33.945 16.348 34.026L16.249 34.539C15.943 34.449 15.565 34.377 15.268 34.377C14.575 34.377 14.305 34.647 14.305 35.061C14.305 35.583 14.791 35.826 15.304 36.042C15.925 36.303 16.636 36.618 16.636 37.518C16.636 38.238 16.087 38.868 14.944 38.868Z" fill="black"/>
<path d="M9.1515 38.868C7.8015 38.868 6.9375 37.986 6.9375 36.402C6.9375 34.953 7.7925 33.891 9.0525 33.891C10.3035 33.891 10.8975 34.764 10.8975 35.952C10.8975 36.177 10.8885 36.321 10.8795 36.447H8.0625V35.988H10.2855C10.3305 34.881 9.7545 34.368 9.0075 34.368C8.0535 34.368 7.5675 35.349 7.5675 36.42C7.5675 37.698 8.2335 38.391 9.2505 38.391C9.6915 38.391 10.1415 38.301 10.5915 38.148L10.7085 38.598C10.2135 38.76 9.6735 38.868 9.1515 38.868Z" fill="black"/>
<path d="M1.773 38.868C0.639 38.868 0 37.914 0 36.573C0 34.854 0.99 33.891 2.142 33.891C2.808 33.891 3.177 34.26 3.294 34.458H3.357V31.884H3.96V37.878C3.96 38.166 3.987 38.355 4.194 38.382C4.32 38.4 4.464 38.355 4.554 38.292L4.698 38.724C4.536 38.832 4.284 38.877 4.059 38.868C3.537 38.841 3.357 38.508 3.357 37.878V35.259C3.186 34.89 2.862 34.368 2.295 34.368C1.458 34.368 0.63 34.98 0.63 36.51C0.63 37.59 1.098 38.391 1.908 38.391C2.214 38.391 2.511 38.211 2.763 37.941L3.069 38.238C2.763 38.643 2.349 38.868 1.773 38.868Z" fill="black"/>
</svg>
