<svg width="285" height="54" viewBox="0 0 285 54" fill="none" xmlns="http://www.w3.org/2000/svg">
<path d="M182.092 53.1822V28.0139H185.435L193.103 40.1641C195.865 44.3588 197.609 47.3602 198.554 49.2406H198.99C198.845 45.7691 198.699 39.2963 198.699 34.2698V28.0139H201.17V53.1822H198.481L190.087 39.9472C187.361 35.6801 185.617 32.751 184.636 30.8707H184.2C184.345 33.7636 184.527 41.3213 184.527 46.0946V53.1822H182.092Z" fill="black"/>
<path d="M165.067 53.6162C157.835 53.6162 153.184 48.4451 153.184 40.5981C153.184 32.7873 157.835 27.6162 165.067 27.6162C172.262 27.6162 176.914 32.7873 176.914 40.5981C176.914 48.4451 172.262 53.6162 165.067 53.6162ZM165.067 51.555C170.627 51.555 174.297 47.1072 174.297 40.5981C174.297 34.0529 170.627 29.6774 165.067 29.6774C159.47 29.6774 155.8 34.0529 155.8 40.5981C155.8 47.1072 159.47 51.555 165.067 51.555Z" fill="black"/>
<path d="M135.812 53.1822V28.0139H148.713V29.9305H138.32V51.1933H148.713V53.1822H135.812ZM140.282 41.1766V39.1878H147.877V41.1766H140.282Z" fill="black"/>
<path d="M121.72 53.2184V43.274L113.471 28.0139H116.269L120.775 36.6565C121.575 38.2114 122.192 39.4409 122.846 40.9597H123.246C123.9 39.4409 124.663 37.886 125.39 36.5842L129.86 28.0139H132.477L124.191 43.274V53.2184H121.72Z" fill="black"/>
<path d="M102.778 53.6162C95.0011 53.6162 90.3496 48.8429 90.3496 41.0682C90.3496 33.3658 94.8194 27.6523 103.723 27.6523C106.085 27.6523 108.52 28.1224 110.7 29.135L109.937 31.1962C107.829 30.1113 105.612 29.7135 103.396 29.7135C96.8181 29.7135 92.9661 34.9569 92.9661 40.6343C92.9661 47.4688 96.9272 51.555 103.214 51.555C105.176 51.555 106.993 51.2657 108.629 50.7233V42.3338H102.742V40.345H111.1V52.2059C108.556 53.1461 105.431 53.6162 102.778 53.6162Z" fill="black"/>
<path d="M66.2012 53.1822V28.0139H69.5444L77.2122 40.1641C79.974 44.3588 81.7183 47.3602 82.6632 49.2406H83.0993C82.9539 45.7691 82.8085 39.2963 82.8085 34.2698V28.0139H85.2797V53.1822H82.5905L74.196 39.9472C71.4705 35.6801 69.7261 32.751 68.745 30.8707H68.3089C68.4542 33.7636 68.6359 41.3213 68.6359 46.0946V53.1822H66.2012Z" fill="black"/>
<path d="M49.2293 53.6161C42.6881 53.6161 39.6719 50.3255 39.6719 44.0695V28.0139H42.1793V44.0695C42.1793 48.9875 44.4324 51.5549 49.2293 51.5549C54.0625 51.5549 56.3156 48.9875 56.3156 44.0695V28.0139H58.8231V44.0695C58.8231 50.3255 55.8068 53.6161 49.2293 53.6161Z" fill="black"/>
<path d="M20.7031 53.1822V28.0139H33.6038V29.9305H23.2106V51.1933H33.6038V53.1822H20.7031ZM25.1729 41.1766V39.1878H32.768V41.1766H25.1729Z" fill="black"/>
<path d="M6.86826 53.4354C4.68786 53.4354 2.03504 52.8206 0 51.8443L0.726801 49.8916C2.68916 50.6148 5.19662 51.3742 7.15898 51.3742C10.5749 51.3742 12.6827 49.7469 12.6827 46.6732C12.6827 43.8165 9.77546 42.3338 7.19532 41.2128C4.10642 39.8387 0.726801 38.2838 0.726801 34.1614C0.726801 30.5452 3.634 27.6523 8.79428 27.6523C10.3206 27.6523 12.6463 28.0501 14.3906 28.8818L13.5912 30.7261C11.9922 30.039 10.1025 29.6412 8.5399 29.6412C5.16028 29.6412 3.34328 31.3046 3.34328 33.9444C3.34328 36.8373 5.9961 38.0306 8.64892 39.1878C11.8832 40.5981 15.2991 42.3338 15.2991 46.4562C15.2991 50.217 12.5373 53.4354 6.86826 53.4354Z" fill="black"/>
<path d="M265.182 53.1822V28.0139H268.525L276.193 40.1641C278.955 44.3588 280.699 47.3602 281.644 49.2406H282.08C281.934 45.7691 281.789 39.2963 281.789 34.2698V28.0139H284.26V53.1822H281.571L273.176 39.9472C270.451 35.6801 268.707 32.751 267.725 30.8707H267.289C267.435 33.7636 267.616 41.3213 267.616 46.0946V53.1822H265.182Z" fill="black"/>
<path d="M248.157 53.6162C240.925 53.6162 236.273 48.4451 236.273 40.5981C236.273 32.7873 240.925 27.6162 248.157 27.6162C255.352 27.6162 260.003 32.7873 260.003 40.5981C260.003 48.4451 255.352 53.6162 248.157 53.6162ZM248.157 51.555C253.717 51.555 257.387 47.1072 257.387 40.5981C257.387 34.0529 253.717 29.6774 248.157 29.6774C242.56 29.6774 238.89 34.0529 238.89 40.5981C238.89 47.1072 242.56 51.555 248.157 51.555Z" fill="black"/>
<path d="M224.038 53.4354C221.858 53.4354 219.205 52.8206 217.17 51.8443L217.897 49.8916C219.859 50.6148 222.367 51.3742 224.329 51.3742C227.745 51.3742 229.853 49.7469 229.853 46.6732C229.853 43.8165 226.945 42.3338 224.365 41.2128C221.276 39.8387 217.897 38.2838 217.897 34.1614C217.897 30.5452 220.804 27.6523 225.964 27.6523C227.49 27.6523 229.816 28.0501 231.561 28.8818L230.761 30.7261C229.162 30.039 227.272 29.6412 225.71 29.6412C222.33 29.6412 220.513 31.3046 220.513 33.9444C220.513 36.8373 223.166 38.0306 225.819 39.1878C229.053 40.5981 232.469 42.3338 232.469 46.4562C232.469 50.217 229.707 53.4354 224.038 53.4354Z" fill="black"/>
<path d="M181.426 15.0415C178.682 15.0415 176.902 13.0309 176.902 9.91339C176.902 6.83281 178.682 4.84058 181.426 4.84058C184.151 4.84058 185.912 6.83281 185.912 9.91339C185.912 13.0309 184.151 15.0415 181.426 15.0415ZM181.426 14.0639C183.353 14.0639 184.614 12.4221 184.614 9.91339C184.614 7.44155 183.353 5.81825 181.426 5.81825C179.479 5.81825 178.2 7.44155 178.2 9.91339C178.2 12.4221 179.479 14.0639 181.426 14.0639Z" fill="black"/>
<path d="M169.347 14.8386V5.04349H170.589V14.8386H169.347ZM169.959 3.1066C169.422 3.1066 169.051 2.71922 169.051 2.22116C169.051 1.70465 169.422 1.29883 169.959 1.29883C170.478 1.29883 170.886 1.68621 170.886 2.22116C170.886 2.70077 170.478 3.1066 169.959 3.1066Z" fill="black"/>
<path d="M161.209 14.8385V0.726807H162.451V14.8385H161.209Z" fill="black"/>
<path d="M150.685 15.0415C147.942 15.0415 146.162 13.0309 146.162 9.91339C146.162 6.83281 147.942 4.84058 150.685 4.84058C153.41 4.84058 155.171 6.83281 155.171 9.91339C155.171 13.0309 153.41 15.0415 150.685 15.0415ZM150.685 14.0639C152.613 14.0639 153.874 12.4221 153.874 9.91339C153.874 7.44155 152.613 5.81825 150.685 5.81825C148.739 5.81825 147.46 7.44155 147.46 9.91339C147.46 12.4221 148.739 14.0639 150.685 14.0639Z" fill="black"/>
<path d="M137.607 14.8385V6.31621H135.531V5.41233H137.607V4.56378C137.607 1.77835 138.479 0.616211 140.574 0.616211C141.056 0.616211 141.834 0.708444 142.372 0.819123L142.186 1.7599C141.76 1.66767 141.074 1.57543 140.611 1.57543C139.22 1.57543 138.85 2.57155 138.85 4.49V5.41233H141.686V6.31621H138.85V14.8385H137.607Z" fill="black"/>
<path d="M129.257 15.0414C127.421 15.0414 126.865 14.2482 126.865 12.2929V5.96572H124.826V5.04339H126.865V2.07349H128.107V5.04339H130.907V5.96572H128.107V12.1638C128.107 13.4919 128.422 14.0084 129.627 14.0084C130.054 14.0084 130.517 13.9347 130.851 13.8609L130.962 14.8385C130.425 14.9492 129.776 15.0414 129.257 15.0414Z" fill="black"/>
<path d="M115.33 14.8386V5.04348H116.554C116.554 5.63378 116.479 6.48232 116.313 7.27552H116.572C116.924 5.92892 118.055 4.693 120.168 4.85902L120.113 6.05805C117.777 5.74446 116.572 7.34931 116.572 10.6697V14.8386H115.33Z" fill="black"/>
<path d="M104.791 15.0415C102.047 15.0415 100.268 13.0309 100.268 9.91339C100.268 6.83281 102.047 4.84058 104.791 4.84058C107.516 4.84058 109.277 6.83281 109.277 9.91339C109.277 13.0309 107.516 15.0415 104.791 15.0415ZM104.791 14.0639C106.719 14.0639 107.979 12.4221 107.979 9.91339C107.979 7.44155 106.719 5.81825 104.791 5.81825C102.844 5.81825 101.565 7.44155 101.565 9.91339C101.565 12.4221 102.844 14.0639 104.791 14.0639Z" fill="black"/>
<path d="M86.8613 19.5794V5.04349H88.0848C88.0848 5.59689 88.0292 6.64834 87.918 7.1464H88.159C88.6595 5.78135 89.883 4.84058 91.3845 4.84058C93.5905 4.84058 94.814 6.55611 94.814 9.26776C94.814 12.6435 92.9973 15.0415 90.0127 15.0415C89.6976 15.0415 89.2156 14.9678 88.8819 14.8386L89.1415 13.8979C89.4566 14.0085 89.7347 14.0639 90.0869 14.0639C92.1446 14.0639 93.5164 12.3483 93.5164 9.37844C93.5164 7.36776 92.7563 5.81825 91.0879 5.81825C89.0673 5.81825 88.1034 8.12407 88.1034 9.85805V19.5794H86.8613Z" fill="black"/>
<path d="M63.2051 14.8386V5.04349H64.4286C64.4286 5.70757 64.3915 6.48232 64.2432 7.1464H64.4842C64.9847 5.78135 66.2082 4.84058 67.8395 4.84058C70.064 4.84058 70.7314 6.11339 70.7314 7.82893V14.8386H69.4894V8.30854C69.4894 6.75902 69.063 5.81825 67.5058 5.81825C65.7077 5.81825 64.4471 7.55223 64.4471 9.89495V14.8386H63.2051Z" fill="black"/>
<path d="M52.6991 19.6163C50.8638 19.6163 49.3623 18.9891 48.5281 18.4173L49.0286 17.4581C49.9369 17.993 51.3273 18.5648 52.7917 18.5648C54.145 18.5648 55.387 17.7532 55.387 15.7425V8.32699C54.8865 6.79592 53.9596 5.81825 52.903 5.81825C50.938 5.81825 49.5476 7.71825 49.5476 10.0425C49.5476 12.3668 50.6599 14.0639 52.5137 14.0639C52.9957 14.0639 53.6445 13.7687 54.1635 13.1784L54.7753 13.6949C54.1635 14.5619 53.2923 15.0415 52.2912 15.0415C49.6959 15.0415 48.25 12.994 48.25 10.1532C48.25 7.1833 50.0852 4.84058 52.7547 4.84058C53.9782 4.84058 54.9051 5.43087 55.387 6.48232V5.04349H56.592V15.6318C56.592 18.1959 54.8494 19.6163 52.6991 19.6163Z" fill="black"/>
<path d="M40.697 14.8386V5.04349H41.939V14.8386H40.697ZM41.3087 3.1066C40.7711 3.1066 40.4004 2.71922 40.4004 2.22116C40.4004 1.70465 40.7711 1.29883 41.3087 1.29883C41.8278 1.29883 42.2356 1.68621 42.2356 2.22116C42.2356 2.70077 41.8278 3.1066 41.3087 3.1066Z" fill="black"/>
<path d="M30.7818 15.0415C29.929 15.0415 28.9465 14.894 28.1309 14.6542L28.4089 13.6212C29.1875 13.861 30.1885 14.0454 30.9301 14.0454C32.3204 14.0454 32.9877 13.3814 32.9877 12.3668C32.9877 11.1678 31.894 10.6697 30.8003 10.1901C29.3358 9.54446 28.2235 8.95417 28.2235 7.34931C28.2235 6.00271 29.2987 4.84058 31.5789 4.84058C32.2092 4.84058 32.9692 4.95126 33.6736 5.11728L33.4697 6.16873C32.8394 5.98427 32.0609 5.83669 31.4491 5.83669C30.0217 5.83669 29.4656 6.39009 29.4656 7.23864C29.4656 8.30854 30.4666 8.8066 31.5233 9.24932C32.8024 9.78427 34.2669 10.4299 34.2669 12.2746C34.2669 13.7503 33.1361 15.0415 30.7818 15.0415Z" fill="black"/>
<path d="M18.8493 15.0415C16.0687 15.0415 14.2891 13.2338 14.2891 9.98718C14.2891 7.01728 16.0501 4.84058 18.6454 4.84058C21.2222 4.84058 22.4457 6.6299 22.4457 9.06485C22.4457 9.52601 22.4271 9.82116 22.4086 10.0794H16.6063V9.13864H21.1851C21.2778 6.8697 20.0914 5.81825 18.5527 5.81825C16.5877 5.81825 15.5867 7.82893 15.5867 10.0241C15.5867 12.6435 16.9585 14.0639 19.0533 14.0639C19.9616 14.0639 20.8885 13.8794 21.8154 13.5658L22.0564 14.4882C21.0368 14.8202 19.9245 15.0415 18.8493 15.0415Z" fill="black"/>
<path d="M3.65194 15.0414C1.31618 15.0414 0 13.086 0 10.3375C0 6.81419 2.03915 4.8404 4.41198 4.8404C5.78378 4.8404 6.54382 5.59671 6.78481 6.00254H6.91458V0.726807H8.15661V13.0122C8.15661 13.6025 8.21222 13.9899 8.63859 14.0453C8.89812 14.0821 9.19472 13.9899 9.3801 13.8608L9.6767 14.7462C9.34302 14.9676 8.82397 15.0598 8.36052 15.0414C7.28533 14.986 6.91458 14.3035 6.91458 13.0122V7.64428C6.56236 6.88797 5.895 5.81807 4.72713 5.81807C3.00311 5.81807 1.29764 7.07244 1.29764 10.2084C1.29764 12.422 2.2616 14.0637 3.93 14.0637C4.56029 14.0637 5.17203 13.6948 5.69109 13.1414L6.32137 13.7501C5.69109 14.5802 4.83835 15.0414 3.65194 15.0414Z" fill="black"/>
</svg>
