<svg width="278" height="54" viewBox="0 0 278 54" fill="none" xmlns="http://www.w3.org/2000/svg">
<path d="M254.542 26.0281V0.859848H257.886L265.554 13.0101C268.315 17.2048 270.06 20.2062 271.004 22.0865H271.441C271.295 18.6151 271.15 12.1422 271.15 7.11576V0.859848H273.621V26.0281H270.932L262.537 12.7931C259.812 8.52605 258.067 5.59698 257.086 3.71659H256.65C256.796 6.6095 256.977 14.1672 256.977 18.9405V26.0281H254.542Z" fill="black"/>
<path d="M237.517 26.4621C230.286 26.4621 225.634 21.291 225.634 13.444C225.634 5.63314 230.286 0.462067 237.517 0.462067C244.713 0.462067 249.364 5.63314 249.364 13.444C249.364 21.291 244.713 26.4621 237.517 26.4621ZM237.517 24.4009C243.077 24.4009 246.748 19.953 246.748 13.444C246.748 6.89878 243.077 2.52326 237.517 2.52326C231.921 2.52326 228.251 6.89878 228.251 13.444C228.251 19.953 231.921 24.4009 237.517 24.4009Z" fill="black"/>
<path d="M208.264 26.0281V0.859848H221.165V2.7764H210.772V24.0393H221.165V26.0281H208.264ZM212.734 14.0226V12.0337H220.329V14.0226H212.734Z" fill="black"/>
<path d="M194.171 26.0643V16.1199L185.921 0.859848H188.72L193.226 9.50241C194.025 11.0573 194.643 12.2868 195.297 13.8056H195.697C196.351 12.2868 197.114 10.7319 197.841 9.43008L202.311 0.859848H204.927L196.642 16.1199V26.0643H194.171Z" fill="black"/>
<path d="M175.229 26.4621C167.452 26.4621 162.8 21.6888 162.8 13.9141C162.8 6.21172 167.27 0.49823 176.173 0.49823C178.536 0.49823 180.97 0.968328 183.151 1.98084L182.388 4.04204C180.28 2.9572 178.063 2.55943 175.846 2.55943C169.269 2.55943 165.417 7.80282 165.417 13.4801C165.417 20.3146 169.378 24.4009 175.665 24.4009C177.627 24.4009 179.444 24.1116 181.079 23.5692V15.1797H175.192V13.1909H183.55V25.0518C181.007 25.992 177.881 26.4621 175.229 26.4621Z" fill="black"/>
<path d="M138.652 26.0281V0.859848H141.996L149.663 13.0101C152.425 17.2048 154.17 20.2062 155.114 22.0865H155.55C155.405 18.6151 155.26 12.1422 155.26 7.11576V0.859848H157.731V26.0281H155.042L146.647 12.7931C143.922 8.52605 142.177 5.59698 141.196 3.71659H140.76C140.905 6.6095 141.087 14.1672 141.087 18.9405V26.0281H138.652Z" fill="black"/>
<path d="M121.681 26.4621C115.14 26.4621 112.124 23.1714 112.124 16.9155V0.859848H114.631V16.9155C114.631 21.8334 116.885 24.4009 121.681 24.4009C126.515 24.4009 128.768 21.8334 128.768 16.9155V0.859848H131.275V16.9155C131.275 23.1714 128.259 26.4621 121.681 26.4621Z" fill="black"/>
<path d="M93.1548 26.0281V0.859848H106.055V2.7764H95.6622V24.0393H106.055V26.0281H93.1548ZM97.6246 14.0226V12.0337H105.22V14.0226H97.6246Z" fill="black"/>
<path d="M79.3194 26.2813C77.139 26.2813 74.4862 25.6665 72.4512 24.6902L73.178 22.7374C75.1403 23.4607 77.6478 24.2201 79.6101 24.2201C83.0261 24.2201 85.1338 22.5928 85.1338 19.5191C85.1338 16.6623 82.2266 15.1797 79.6465 14.0587C76.5576 12.6846 73.178 11.1297 73.178 7.00727C73.178 3.39114 76.0852 0.49823 81.2455 0.49823C82.7717 0.49823 85.0975 0.896004 86.8418 1.72771L86.0423 3.57194C84.4434 2.88488 82.5537 2.4871 80.9911 2.4871C77.6115 2.4871 75.7944 4.15053 75.7944 6.7903C75.7944 9.68321 78.4473 10.8765 81.1001 12.0337C84.3344 13.444 87.7503 15.1797 87.7503 19.3021C87.7503 23.0629 84.9885 26.2813 79.3194 26.2813Z" fill="black"/>
<path d="M48.0122 26.0281V0.859848H51.3555L59.0232 13.0101C61.7851 17.2048 63.5294 20.2062 64.4742 22.0865H64.9103C64.7649 18.6151 64.6196 12.1422 64.6196 7.11576V0.859848H67.0907V26.0281H64.4015L56.007 12.7931C53.2815 8.52605 51.5372 5.59698 50.556 3.71659H50.1199C50.2653 6.6095 50.447 14.1672 50.447 18.9405V26.0281H48.0122Z" fill="black"/>
<path d="M30.9877 26.4621C23.756 26.4621 19.1045 21.291 19.1045 13.444C19.1045 5.63314 23.756 0.462067 30.9877 0.462067C38.183 0.462067 42.8345 5.63314 42.8345 13.444C42.8345 21.291 38.183 26.4621 30.9877 26.4621ZM30.9877 24.4009C36.5477 24.4009 40.218 19.953 40.218 13.444C40.218 6.89878 36.5477 2.52326 30.9877 2.52326C25.3913 2.52326 21.721 6.89878 21.721 13.444C21.721 19.953 25.3913 24.4009 30.9877 24.4009Z" fill="black"/>
<path d="M6.86826 26.2813C4.68786 26.2813 2.03504 25.6665 0 24.6902L0.7268 22.7374C2.68916 23.4607 5.19662 24.2201 7.15898 24.2201C10.5749 24.2201 12.6827 22.5928 12.6827 19.5191C12.6827 16.6623 9.77546 15.1797 7.19532 14.0587C4.10642 12.6846 0.7268 11.1297 0.7268 7.00727C0.7268 3.39114 3.634 0.49823 8.79428 0.49823C10.3206 0.49823 12.6463 0.896004 14.3906 1.72771L13.5912 3.57194C11.9922 2.88488 10.1025 2.4871 8.5399 2.4871C5.16028 2.4871 3.34328 4.15053 3.34328 6.7903C3.34328 9.68321 5.9961 10.8765 8.64892 12.0337C11.8832 13.444 15.2991 15.1797 15.2991 19.3021C15.2991 23.0629 12.5373 26.2813 6.86826 26.2813Z" fill="black"/>
<path d="M269.876 48.9741C267.277 48.9741 265.591 47.0692 265.591 44.1158C265.591 41.1974 267.277 39.31 269.876 39.31C272.458 39.31 274.126 41.1974 274.126 44.1158C274.126 47.0692 272.458 48.9741 269.876 48.9741ZM269.876 48.0478C271.703 48.0478 272.897 46.4925 272.897 44.1158C272.897 41.7741 271.703 40.2362 269.876 40.2362C268.032 40.2362 266.821 41.7741 266.821 44.1158C266.821 46.4925 268.032 48.0478 269.876 48.0478Z" fill="black"/>
<path d="M258.435 48.7818V39.5022H259.612V48.7818H258.435ZM259.015 37.6673C258.506 37.6673 258.154 37.3003 258.154 36.8284C258.154 36.3391 258.506 35.9546 259.015 35.9546C259.507 35.9546 259.893 36.3216 259.893 36.8284C259.893 37.2828 259.507 37.6673 259.015 37.6673Z" fill="black"/>
<path d="M250.725 48.7818V35.4129H251.901V48.7818H250.725Z" fill="black"/>
<path d="M240.755 48.9741C238.156 48.9741 236.47 47.0692 236.47 44.1158C236.47 41.1974 238.156 39.31 240.755 39.31C243.336 39.31 245.005 41.1974 245.005 44.1158C245.005 47.0692 243.336 48.9741 240.755 48.9741ZM240.755 48.0478C242.581 48.0478 243.776 46.4925 243.776 44.1158C243.776 41.7741 242.581 40.2362 240.755 40.2362C238.911 40.2362 237.699 41.7741 237.699 44.1158C237.699 46.4925 238.911 48.0478 240.755 48.0478Z" fill="black"/>
<path d="M228.365 48.7818V40.708H226.398V39.8517H228.365V39.0479C228.365 36.409 229.19 35.308 231.175 35.308C231.631 35.308 232.369 35.3954 232.878 35.5003L232.703 36.3915C232.299 36.3042 231.649 36.2168 231.21 36.2168C229.893 36.2168 229.542 37.1605 229.542 38.9779V39.8517H232.229V40.708H229.542V48.7818H228.365Z" fill="black"/>
<path d="M220.455 48.9741C218.716 48.9741 218.189 48.2226 218.189 46.3702V40.376H216.257V39.5022H218.189V36.6886H219.366V39.5022H222.018V40.376H219.366V46.2479C219.366 47.5061 219.664 47.9954 220.806 47.9954C221.21 47.9954 221.649 47.9255 221.965 47.8556L222.07 48.7818C221.561 48.8867 220.946 48.9741 220.455 48.9741Z" fill="black"/>
<path d="M207.259 48.7818V39.5022H208.418C208.418 40.0615 208.348 40.8653 208.19 41.6168H208.436C208.77 40.3411 209.841 39.1702 211.843 39.3275L211.79 40.4634C209.577 40.1663 208.436 41.6867 208.436 44.8323V48.7818H207.259Z" fill="black"/>
<path d="M197.275 48.9741C194.676 48.9741 192.99 47.0692 192.99 44.1158C192.99 41.1974 194.676 39.31 197.275 39.31C199.857 39.31 201.525 41.1974 201.525 44.1158C201.525 47.0692 199.857 48.9741 197.275 48.9741ZM197.275 48.0478C199.101 48.0478 200.296 46.4925 200.296 44.1158C200.296 41.7741 199.101 40.2362 197.275 40.2362C195.431 40.2362 194.219 41.7741 194.219 44.1158C194.219 46.4925 195.431 48.0478 197.275 48.0478Z" fill="black"/>
<path d="M180.289 53.2731V39.5022H181.448C181.448 40.0265 181.395 41.0226 181.29 41.4944H181.518C181.993 40.2012 183.152 39.31 184.574 39.31C186.664 39.31 187.823 40.9352 187.823 43.5042C187.823 46.7022 186.102 48.9741 183.275 48.9741C182.976 48.9741 182.519 48.9042 182.203 48.7818L182.449 47.8906C182.748 47.9954 183.011 48.0478 183.345 48.0478C185.294 48.0478 186.594 46.4226 186.594 43.609C186.594 41.7042 185.874 40.2362 184.293 40.2362C182.379 40.2362 181.466 42.4207 181.466 44.0634V53.2731H180.289Z" fill="black"/>
<path d="M157.879 48.7818V39.5022H159.038C159.038 40.1313 159.003 40.8653 158.862 41.4944H159.091C159.565 40.2012 160.724 39.31 162.269 39.31C164.377 39.31 165.009 40.5158 165.009 42.1411V48.7818H163.832V42.5954C163.832 41.1275 163.429 40.2362 161.953 40.2362C160.25 40.2362 159.056 41.8789 159.056 44.0983V48.7818H157.879Z" fill="black"/>
<path d="M147.926 53.308C146.187 53.308 144.765 52.7139 143.974 52.1721L144.449 51.2634C145.309 51.7702 146.626 52.3119 148.014 52.3119C149.296 52.3119 150.472 51.543 150.472 49.6381V42.6129C149.998 41.1624 149.12 40.2362 148.119 40.2362C146.257 40.2362 144.94 42.0362 144.94 44.2381C144.94 46.4401 145.994 48.0478 147.75 48.0478C148.207 48.0478 148.822 47.7682 149.313 47.209L149.893 47.6983C149.313 48.5197 148.488 48.9741 147.539 48.9741C145.081 48.9741 143.711 47.0343 143.711 44.343C143.711 41.5294 145.45 39.31 147.979 39.31C149.138 39.31 150.016 39.8692 150.472 40.8653V39.5022H151.614V49.5333C151.614 51.9624 149.963 53.308 147.926 53.308Z" fill="black"/>
<path d="M136.556 48.7818V39.5022H137.733V48.7818H136.556ZM137.135 37.6673C136.626 37.6673 136.275 37.3003 136.275 36.8284C136.275 36.3391 136.626 35.9546 137.135 35.9546C137.627 35.9546 138.014 36.3216 138.014 36.8284C138.014 37.2828 137.627 37.6673 137.135 37.6673Z" fill="black"/>
<path d="M127.161 48.9741C126.353 48.9741 125.423 48.8343 124.65 48.6071L124.913 47.6284C125.651 47.8556 126.599 48.0304 127.302 48.0304C128.619 48.0304 129.251 47.4012 129.251 46.4401C129.251 45.3042 128.215 44.8323 127.179 44.3779C125.791 43.7663 124.738 43.2071 124.738 41.6867C124.738 40.411 125.756 39.31 127.916 39.31C128.514 39.31 129.234 39.4148 129.901 39.5721L129.708 40.5682C129.111 40.3935 128.373 40.2537 127.794 40.2537C126.441 40.2537 125.914 40.7779 125.914 41.5818C125.914 42.5954 126.863 43.0673 127.864 43.4867C129.076 43.9935 130.463 44.6051 130.463 46.3527C130.463 47.7508 129.392 48.9741 127.161 48.9741Z" fill="black"/>
<path d="M115.858 48.9741C113.224 48.9741 111.538 47.2614 111.538 44.1857C111.538 41.3721 113.206 39.31 115.665 39.31C118.106 39.31 119.265 41.0051 119.265 43.3119C119.265 43.7488 119.247 44.0284 119.23 44.2731H113.733V43.3818H118.071C118.159 41.2323 117.035 40.2362 115.577 40.2362C113.715 40.2362 112.767 42.1411 112.767 44.2207C112.767 46.7022 114.067 48.0478 116.051 48.0478C116.912 48.0478 117.79 47.8731 118.668 47.576L118.896 48.4498C117.93 48.7644 116.876 48.9741 115.858 48.9741Z" fill="black"/>
<path d="M101.46 48.9741C99.2469 48.9741 98 47.1216 98 44.5178C98 41.1799 99.9318 39.31 102.18 39.31C103.479 39.31 104.199 40.0265 104.428 40.411H104.551V35.4129H105.727V47.0517C105.727 47.611 105.78 47.978 106.184 48.0304C106.43 48.0653 106.711 47.978 106.886 47.8556L107.167 48.6945C106.851 48.9042 106.36 48.9915 105.92 48.9741C104.902 48.9216 104.551 48.275 104.551 47.0517V41.9663C104.217 41.2498 103.585 40.2362 102.478 40.2362C100.845 40.2362 99.2293 41.4246 99.2293 44.3954C99.2293 46.4925 100.143 48.0479 101.723 48.0479C102.32 48.0479 102.9 47.6983 103.392 47.1741L103.989 47.7508C103.392 48.5372 102.584 48.9741 101.46 48.9741Z" fill="black"/>
</svg>
