<svg width="278" height="40" viewBox="0 0 278 40" fill="none" xmlns="http://www.w3.org/2000/svg">
<path d="M9.216 25.704C7.056 25.704 4.428 25.092 2.412 24.12L3.132 22.176C5.076 22.896 7.56 23.652 9.504 23.652C12.888 23.652 14.976 22.032 14.976 18.972C14.976 16.128 12.096 14.652 9.54 13.536C6.48 12.168 3.132 10.62 3.132 6.51601C3.132 2.91601 6.012 0.036006 11.124 0.036006C12.636 0.036006 14.94 0.432005 16.668 1.26001L15.876 3.09601C14.292 2.41201 12.42 2.01601 10.872 2.01601C7.524 2.01601 5.724 3.67201 5.724 6.3C5.724 9.18001 8.352 10.368 10.98 11.52C14.184 12.924 17.568 14.652 17.568 18.756C17.568 22.5 14.832 25.704 9.216 25.704ZM33.1096 25.884C25.9456 25.884 21.3376 20.736 21.3376 12.924C21.3376 5.14801 25.9456 6.4373e-06 33.1096 6.4373e-06C40.2376 6.4373e-06 44.8456 5.14801 44.8456 12.924C44.8456 20.736 40.2376 25.884 33.1096 25.884ZM33.1096 23.832C38.6176 23.832 42.2536 19.404 42.2536 12.924C42.2536 6.40801 38.6176 2.05201 33.1096 2.05201C27.5656 2.05201 23.9296 6.40801 23.9296 12.924C23.9296 19.404 27.5656 23.832 33.1096 23.832ZM49.975 25.452V0.396006H53.287L60.883 12.492C63.619 16.668 65.347 19.656 66.283 21.528H66.715C66.571 18.072 66.427 11.628 66.427 6.624V0.396006H68.875V25.452H66.211L57.895 12.276C55.195 8.02801 53.467 5.112 52.495 3.24001H52.063C52.207 6.12 52.387 13.644 52.387 18.396V25.452H49.975ZM80.9896 25.704C78.8296 25.704 76.2016 25.092 74.1856 24.12L74.9056 22.176C76.8496 22.896 79.3336 23.652 81.2776 23.652C84.6616 23.652 86.7496 22.032 86.7496 18.972C86.7496 16.128 83.8696 14.652 81.3136 13.536C78.2536 12.168 74.9056 10.62 74.9056 6.51601C74.9056 2.91601 77.7856 0.036006 82.8976 0.036006C84.4096 0.036006 86.7136 0.432005 88.4416 1.26001L87.6496 3.09601C86.0656 2.41201 84.1936 2.01601 82.6456 2.01601C79.2976 2.01601 77.4976 3.67201 77.4976 6.3C77.4976 9.18001 80.1256 10.368 82.7536 11.52C85.9576 12.924 89.3416 14.652 89.3416 18.756C89.3416 22.5 86.6056 25.704 80.9896 25.704ZM94.6952 25.452V0.396006H107.475V2.304H97.1792V23.472H107.475V25.452H94.6952ZM99.1232 13.5V11.52H106.647V13.5H99.1232ZM122.955 25.884C116.475 25.884 113.487 22.608 113.487 16.38V0.396006H115.971V16.38C115.971 21.276 118.203 23.832 122.955 23.832C127.743 23.832 129.975 21.276 129.975 16.38V0.396006H132.459V16.38C132.459 22.608 129.471 25.884 122.955 25.884ZM139.767 25.452V0.396006H143.079L150.675 12.492C153.411 16.668 155.139 19.656 156.075 21.528H156.507C156.363 18.072 156.219 11.628 156.219 6.624V0.396006H158.667V25.452H156.003L147.687 12.276C144.987 8.02801 143.259 5.112 142.287 3.24001H141.855C141.999 6.12 142.179 13.644 142.179 18.396V25.452H139.767ZM176.001 25.884C168.297 25.884 163.689 21.132 163.689 13.392C163.689 5.72401 168.117 0.036006 176.937 0.036006C179.277 0.036006 181.689 0.504006 183.849 1.51201L183.093 3.56401C181.005 2.484 178.809 2.08801 176.613 2.08801C170.097 2.08801 166.281 7.30801 166.281 12.96C166.281 19.764 170.205 23.832 176.433 23.832C178.377 23.832 180.177 23.544 181.797 23.004V14.652H175.965V12.672H184.245V24.48C181.725 25.416 178.629 25.884 176.001 25.884ZM194.766 25.488V15.588L186.594 0.396006H189.366L193.83 9.00001C194.622 10.548 195.234 11.772 195.882 13.284H196.278C196.926 11.772 197.682 10.224 198.402 8.92801L202.83 0.396006H205.422L197.214 15.588V25.488H194.766ZM208.728 25.452V0.396006H221.508V2.304H211.212V23.472H221.508V25.452H208.728ZM213.156 13.5V11.52H220.68V13.5H213.156ZM237.708 25.884C230.544 25.884 225.936 20.736 225.936 12.924C225.936 5.14801 230.544 6.4373e-06 237.708 6.4373e-06C244.836 6.4373e-06 249.444 5.14801 249.444 12.924C249.444 20.736 244.836 25.884 237.708 25.884ZM237.708 23.832C243.216 23.832 246.852 19.404 246.852 12.924C246.852 6.40801 243.216 2.05201 237.708 2.05201C232.164 2.05201 228.528 6.40801 228.528 12.924C228.528 19.404 232.164 23.832 237.708 23.832ZM254.573 25.452V0.396006H257.885L265.481 12.492C268.217 16.668 269.945 19.656 270.881 21.528H271.313C271.169 18.072 271.025 11.628 271.025 6.624V0.396006H273.473V25.452H270.809L262.493 12.276C259.793 8.02801 258.065 5.112 257.093 3.24001H256.661C256.805 6.12 256.985 13.644 256.985 18.396V25.452H254.573Z" fill="black"/>
<path d="M188.286 37.587C187.152 37.587 186.513 36.633 186.513 35.292C186.513 33.573 187.503 32.61 188.655 32.61C189.321 32.61 189.69 32.979 189.807 33.177H189.87V30.603H190.473V36.597C190.473 36.885 190.5 37.074 190.707 37.101C190.833 37.119 190.977 37.074 191.067 37.011L191.211 37.443C191.049 37.551 190.797 37.596 190.572 37.587C190.05 37.56 189.87 37.227 189.87 36.597V33.978C189.699 33.609 189.375 33.087 188.808 33.087C187.971 33.087 187.143 33.699 187.143 35.229C187.143 36.309 187.611 37.11 188.421 37.11C188.727 37.11 189.024 36.93 189.276 36.66L189.582 36.957C189.276 37.362 188.862 37.587 188.286 37.587ZM195.664 37.587C194.314 37.587 193.45 36.705 193.45 35.121C193.45 33.672 194.305 32.61 195.565 32.61C196.816 32.61 197.41 33.483 197.41 34.671C197.41 34.896 197.401 35.04 197.392 35.166H194.575V34.707H196.798C196.843 33.6 196.267 33.087 195.52 33.087C194.566 33.087 194.08 34.068 194.08 35.139C194.08 36.417 194.746 37.11 195.763 37.11C196.204 37.11 196.654 37.02 197.104 36.867L197.221 37.317C196.726 37.479 196.186 37.587 195.664 37.587ZM201.457 37.587C201.043 37.587 200.566 37.515 200.17 37.398L200.305 36.894C200.683 37.011 201.169 37.101 201.529 37.101C202.204 37.101 202.528 36.777 202.528 36.282C202.528 35.697 201.997 35.454 201.466 35.22C200.755 34.905 200.215 34.617 200.215 33.834C200.215 33.177 200.737 32.61 201.844 32.61C202.15 32.61 202.519 32.664 202.861 32.745L202.762 33.258C202.456 33.168 202.078 33.096 201.781 33.096C201.088 33.096 200.818 33.366 200.818 33.78C200.818 34.302 201.304 34.545 201.817 34.761C202.438 35.022 203.149 35.337 203.149 36.237C203.149 36.957 202.6 37.587 201.457 37.587ZM206.271 37.488V32.709H206.874V37.488H206.271ZM206.568 31.764C206.307 31.764 206.127 31.575 206.127 31.332C206.127 31.08 206.307 30.882 206.568 30.882C206.82 30.882 207.018 31.071 207.018 31.332C207.018 31.566 206.82 31.764 206.568 31.764ZM212.098 39.819C211.207 39.819 210.478 39.513 210.073 39.234L210.316 38.766C210.757 39.027 211.432 39.306 212.143 39.306C212.8 39.306 213.403 38.91 213.403 37.929V34.311C213.16 33.564 212.71 33.087 212.197 33.087C211.243 33.087 210.568 34.014 210.568 35.148C210.568 36.282 211.108 37.11 212.008 37.11C212.242 37.11 212.557 36.966 212.809 36.678L213.106 36.93C212.809 37.353 212.386 37.587 211.9 37.587C210.64 37.587 209.938 36.588 209.938 35.202C209.938 33.753 210.829 32.61 212.125 32.61C212.719 32.61 213.169 32.898 213.403 33.411V32.709H213.988V37.875C213.988 39.126 213.142 39.819 212.098 39.819ZM217.199 37.488V32.709H217.793C217.793 33.033 217.775 33.411 217.703 33.735H217.82C218.063 33.069 218.657 32.61 219.449 32.61C220.529 32.61 220.853 33.231 220.853 34.068V37.488H220.25V34.302C220.25 33.546 220.043 33.087 219.287 33.087C218.414 33.087 217.802 33.933 217.802 35.076V37.488H217.199ZM228.683 39.801V32.709H229.277C229.277 32.979 229.25 33.492 229.196 33.735H229.313C229.556 33.069 230.15 32.61 230.879 32.61C231.95 32.61 232.544 33.447 232.544 34.77C232.544 36.417 231.662 37.587 230.213 37.587C230.06 37.587 229.826 37.551 229.664 37.488L229.79 37.029C229.943 37.083 230.078 37.11 230.249 37.11C231.248 37.11 231.914 36.273 231.914 34.824C231.914 33.843 231.545 33.087 230.735 33.087C229.754 33.087 229.286 34.212 229.286 35.058V39.801H228.683ZM237.388 37.587C236.056 37.587 235.192 36.606 235.192 35.085C235.192 33.582 236.056 32.61 237.388 32.61C238.711 32.61 239.566 33.582 239.566 35.085C239.566 36.606 238.711 37.587 237.388 37.587ZM237.388 37.11C238.324 37.11 238.936 36.309 238.936 35.085C238.936 33.879 238.324 33.087 237.388 33.087C236.443 33.087 235.822 33.879 235.822 35.085C235.822 36.309 236.443 37.11 237.388 37.11ZM242.505 37.488V32.709H243.099C243.099 32.997 243.063 33.411 242.982 33.798H243.108C243.279 33.141 243.828 32.538 244.854 32.619L244.827 33.204C243.693 33.051 243.108 33.834 243.108 35.454V37.488H242.505ZM249.267 37.587C248.376 37.587 248.106 37.2 248.106 36.246V33.159H247.116V32.709H248.106V31.26H248.709V32.709H250.068V33.159H248.709V36.183C248.709 36.831 248.862 37.083 249.447 37.083C249.654 37.083 249.879 37.047 250.041 37.011L250.095 37.488C249.834 37.542 249.519 37.587 249.267 37.587ZM253.321 37.488V33.33H252.313V32.889H253.321V32.475C253.321 31.116 253.744 30.549 254.761 30.549C254.995 30.549 255.373 30.594 255.634 30.648L255.544 31.107C255.337 31.062 255.004 31.017 254.779 31.017C254.104 31.017 253.924 31.503 253.924 32.439V32.889H255.301V33.33H253.924V37.488H253.321ZM259.67 37.587C258.338 37.587 257.474 36.606 257.474 35.085C257.474 33.582 258.338 32.61 259.67 32.61C260.993 32.61 261.848 33.582 261.848 35.085C261.848 36.606 260.993 37.587 259.67 37.587ZM259.67 37.11C260.606 37.11 261.218 36.309 261.218 35.085C261.218 33.879 260.606 33.087 259.67 33.087C258.725 33.087 258.104 33.879 258.104 35.085C258.104 36.309 258.725 37.11 259.67 37.11ZM264.779 37.488V30.603H265.382V37.488H264.779ZM268.731 37.488V32.709H269.334V37.488H268.731ZM269.028 31.764C268.767 31.764 268.587 31.575 268.587 31.332C268.587 31.08 268.767 30.882 269.028 30.882C269.28 30.882 269.478 31.071 269.478 31.332C269.478 31.566 269.28 31.764 269.028 31.764ZM274.594 37.587C273.262 37.587 272.398 36.606 272.398 35.085C272.398 33.582 273.262 32.61 274.594 32.61C275.917 32.61 276.772 33.582 276.772 35.085C276.772 36.606 275.917 37.587 274.594 37.587ZM274.594 37.11C275.53 37.11 276.142 36.309 276.142 35.085C276.142 33.879 275.53 33.087 274.594 33.087C273.649 33.087 273.028 33.879 273.028 35.085C273.028 36.309 273.649 37.11 274.594 37.11Z" fill="black"/>
</svg>
